<mxfile host="app.diagrams.net" modified="2024-07-09T18:47:22.635Z" agent="Mozilla/5.0 (Macintosh; Intel Mac OS X 10_15_7) AppleWebKit/537.36 (KHTML, like Gecko) Chrome/126.0.0.0 Safari/537.36" etag="-2PVMeJvkeZuT3ytkbRh" version="24.6.4" type="github">
  <diagram name="PÃ¡gina-1" id="PyifgO8BFb64cpr1a7OR">
    <mxGraphModel dx="2394" dy="1251" grid="1" gridSize="10" guides="1" tooltips="1" connect="1" arrows="1" fold="1" page="1" pageScale="1" pageWidth="827" pageHeight="1169" math="0" shadow="0">
      <root>
        <mxCell id="0" />
        <mxCell id="1" parent="0" />
        <mxCell id="H4qmeB2u3oznIAtk8Gsr-1" value="Profesores" style="rounded=0;whiteSpace=wrap;html=1;strokeColor=default;align=center;verticalAlign=middle;fontFamily=Helvetica;fontSize=12;fontColor=default;fillColor=default;" vertex="1" parent="1">
          <mxGeometry x="520" y="535" width="120" height="60" as="geometry" />
        </mxCell>
        <mxCell id="H4qmeB2u3oznIAtk8Gsr-2" value="Modulo" style="rounded=0;whiteSpace=wrap;html=1;strokeColor=default;align=center;verticalAlign=middle;fontFamily=Helvetica;fontSize=12;fontColor=default;fillColor=default;" vertex="1" parent="1">
          <mxGeometry x="910" y="535" width="120" height="60" as="geometry" />
        </mxCell>
        <mxCell id="H4qmeB2u3oznIAtk8Gsr-3" value="Alumno" style="rounded=0;whiteSpace=wrap;html=1;strokeColor=default;align=center;verticalAlign=middle;fontFamily=Helvetica;fontSize=12;fontColor=default;fillColor=default;" vertex="1" parent="1">
          <mxGeometry x="1085" y="730" width="120" height="60" as="geometry" />
        </mxCell>
        <mxCell id="H4qmeB2u3oznIAtk8Gsr-4" value="&lt;u&gt;DNI&lt;/u&gt;" style="ellipse;whiteSpace=wrap;html=1;" vertex="1" parent="1">
          <mxGeometry x="420" y="380" width="90" height="50" as="geometry" />
        </mxCell>
        <mxCell id="H4qmeB2u3oznIAtk8Gsr-5" value="nombre" style="ellipse;whiteSpace=wrap;html=1;" vertex="1" parent="1">
          <mxGeometry x="380" y="450" width="90" height="50" as="geometry" />
        </mxCell>
        <mxCell id="H4qmeB2u3oznIAtk8Gsr-6" value="direccion" style="ellipse;whiteSpace=wrap;html=1;" vertex="1" parent="1">
          <mxGeometry x="370" y="530" width="90" height="50" as="geometry" />
        </mxCell>
        <mxCell id="H4qmeB2u3oznIAtk8Gsr-7" value="telefono" style="ellipse;whiteSpace=wrap;html=1;" vertex="1" parent="1">
          <mxGeometry x="380" y="600" width="90" height="50" as="geometry" />
        </mxCell>
        <mxCell id="H4qmeB2u3oznIAtk8Gsr-8" value="" style="endArrow=classic;html=1;rounded=0;exitX=1;exitY=0.5;exitDx=0;exitDy=0;entryX=0.25;entryY=0;entryDx=0;entryDy=0;" edge="1" parent="1" source="H4qmeB2u3oznIAtk8Gsr-4" target="H4qmeB2u3oznIAtk8Gsr-1">
          <mxGeometry width="50" height="50" relative="1" as="geometry">
            <mxPoint x="760" y="670" as="sourcePoint" />
            <mxPoint x="810" y="620" as="targetPoint" />
          </mxGeometry>
        </mxCell>
        <mxCell id="H4qmeB2u3oznIAtk8Gsr-9" value="" style="endArrow=classic;html=1;rounded=0;exitX=1;exitY=0.5;exitDx=0;exitDy=0;entryX=0;entryY=0;entryDx=0;entryDy=0;" edge="1" parent="1" source="H4qmeB2u3oznIAtk8Gsr-5" target="H4qmeB2u3oznIAtk8Gsr-1">
          <mxGeometry width="50" height="50" relative="1" as="geometry">
            <mxPoint x="680" y="645" as="sourcePoint" />
            <mxPoint x="730" y="740" as="targetPoint" />
          </mxGeometry>
        </mxCell>
        <mxCell id="H4qmeB2u3oznIAtk8Gsr-10" value="" style="endArrow=classic;html=1;rounded=0;exitX=1;exitY=0.5;exitDx=0;exitDy=0;entryX=0;entryY=0.5;entryDx=0;entryDy=0;entryPerimeter=0;" edge="1" parent="1" source="H4qmeB2u3oznIAtk8Gsr-6" target="H4qmeB2u3oznIAtk8Gsr-1">
          <mxGeometry width="50" height="50" relative="1" as="geometry">
            <mxPoint x="690" y="655" as="sourcePoint" />
            <mxPoint x="740" y="750" as="targetPoint" />
          </mxGeometry>
        </mxCell>
        <mxCell id="H4qmeB2u3oznIAtk8Gsr-11" value="" style="endArrow=classic;html=1;rounded=0;exitX=1;exitY=0.5;exitDx=0;exitDy=0;entryX=0;entryY=1;entryDx=0;entryDy=0;" edge="1" parent="1" source="H4qmeB2u3oznIAtk8Gsr-7" target="H4qmeB2u3oznIAtk8Gsr-1">
          <mxGeometry width="50" height="50" relative="1" as="geometry">
            <mxPoint x="700" y="665" as="sourcePoint" />
            <mxPoint x="750" y="760" as="targetPoint" />
          </mxGeometry>
        </mxCell>
        <mxCell id="H4qmeB2u3oznIAtk8Gsr-12" value="Imparte" style="rhombus;whiteSpace=wrap;html=1;" vertex="1" parent="1">
          <mxGeometry x="715" y="530" width="70" height="70" as="geometry" />
        </mxCell>
        <mxCell id="H4qmeB2u3oznIAtk8Gsr-13" value="&lt;u&gt;Codigo_modulo&lt;/u&gt;" style="ellipse;whiteSpace=wrap;html=1;" vertex="1" parent="1">
          <mxGeometry x="860" y="410" width="109" height="50" as="geometry" />
        </mxCell>
        <mxCell id="H4qmeB2u3oznIAtk8Gsr-14" value="nombre" style="ellipse;whiteSpace=wrap;html=1;" vertex="1" parent="1">
          <mxGeometry x="1010" y="410" width="90" height="50" as="geometry" />
        </mxCell>
        <mxCell id="H4qmeB2u3oznIAtk8Gsr-15" value="" style="endArrow=classic;html=1;rounded=0;exitX=0.5;exitY=1;exitDx=0;exitDy=0;entryX=0.25;entryY=0;entryDx=0;entryDy=0;" edge="1" parent="1" source="H4qmeB2u3oznIAtk8Gsr-13" target="H4qmeB2u3oznIAtk8Gsr-2">
          <mxGeometry width="50" height="50" relative="1" as="geometry">
            <mxPoint x="680" y="645" as="sourcePoint" />
            <mxPoint x="730" y="740" as="targetPoint" />
          </mxGeometry>
        </mxCell>
        <mxCell id="H4qmeB2u3oznIAtk8Gsr-16" value="" style="endArrow=classic;html=1;rounded=0;exitX=0.5;exitY=1;exitDx=0;exitDy=0;entryX=0.75;entryY=0;entryDx=0;entryDy=0;" edge="1" parent="1" source="H4qmeB2u3oznIAtk8Gsr-14" target="H4qmeB2u3oznIAtk8Gsr-2">
          <mxGeometry width="50" height="50" relative="1" as="geometry">
            <mxPoint x="934" y="470" as="sourcePoint" />
            <mxPoint x="950" y="545" as="targetPoint" />
          </mxGeometry>
        </mxCell>
        <mxCell id="H4qmeB2u3oznIAtk8Gsr-17" value="N" style="text;html=1;align=center;verticalAlign=middle;whiteSpace=wrap;rounded=0;" vertex="1" parent="1">
          <mxGeometry x="640" y="535" width="30" height="30" as="geometry" />
        </mxCell>
        <mxCell id="H4qmeB2u3oznIAtk8Gsr-18" value="N" style="text;html=1;align=center;verticalAlign=middle;whiteSpace=wrap;rounded=0;" vertex="1" parent="1">
          <mxGeometry x="880" y="535" width="30" height="30" as="geometry" />
        </mxCell>
        <mxCell id="H4qmeB2u3oznIAtk8Gsr-19" value="Matricular" style="rhombus;whiteSpace=wrap;html=1;" vertex="1" parent="1">
          <mxGeometry x="1110" y="530" width="70" height="70" as="geometry" />
        </mxCell>
        <mxCell id="H4qmeB2u3oznIAtk8Gsr-20" value="1" style="text;html=1;align=center;verticalAlign=middle;whiteSpace=wrap;rounded=0;" vertex="1" parent="1">
          <mxGeometry x="1150" y="700" width="30" height="30" as="geometry" />
        </mxCell>
        <mxCell id="H4qmeB2u3oznIAtk8Gsr-21" value="N" style="text;html=1;align=center;verticalAlign=middle;whiteSpace=wrap;rounded=0;" vertex="1" parent="1">
          <mxGeometry x="1040" y="535" width="30" height="30" as="geometry" />
        </mxCell>
        <mxCell id="H4qmeB2u3oznIAtk8Gsr-22" value="nombre" style="ellipse;whiteSpace=wrap;html=1;" vertex="1" parent="1">
          <mxGeometry x="1270" y="675" width="90" height="50" as="geometry" />
        </mxCell>
        <mxCell id="H4qmeB2u3oznIAtk8Gsr-23" value="Apellidos" style="ellipse;whiteSpace=wrap;html=1;" vertex="1" parent="1">
          <mxGeometry x="1277" y="750" width="90" height="50" as="geometry" />
        </mxCell>
        <mxCell id="H4qmeB2u3oznIAtk8Gsr-24" value="Fecha_nacimiento" style="ellipse;whiteSpace=wrap;html=1;" vertex="1" parent="1">
          <mxGeometry x="1270" y="830" width="110" height="50" as="geometry" />
        </mxCell>
        <mxCell id="H4qmeB2u3oznIAtk8Gsr-25" value="" style="endArrow=classic;html=1;rounded=0;exitX=0;exitY=0.5;exitDx=0;exitDy=0;entryX=1;entryY=0;entryDx=0;entryDy=0;" edge="1" parent="1" source="H4qmeB2u3oznIAtk8Gsr-26" target="H4qmeB2u3oznIAtk8Gsr-3">
          <mxGeometry width="50" height="50" relative="1" as="geometry">
            <mxPoint x="1160" y="920" as="sourcePoint" />
            <mxPoint x="1210" y="1015" as="targetPoint" />
          </mxGeometry>
        </mxCell>
        <mxCell id="H4qmeB2u3oznIAtk8Gsr-26" value="&lt;u&gt;N_expediente&lt;/u&gt;" style="ellipse;whiteSpace=wrap;html=1;" vertex="1" parent="1">
          <mxGeometry x="1250" y="610" width="100" height="50" as="geometry" />
        </mxCell>
        <mxCell id="H4qmeB2u3oznIAtk8Gsr-27" value="" style="endArrow=classic;html=1;rounded=0;exitX=0;exitY=0.5;exitDx=0;exitDy=0;entryX=1;entryY=0.25;entryDx=0;entryDy=0;" edge="1" parent="1" source="H4qmeB2u3oznIAtk8Gsr-22" target="H4qmeB2u3oznIAtk8Gsr-3">
          <mxGeometry width="50" height="50" relative="1" as="geometry">
            <mxPoint x="1260" y="645" as="sourcePoint" />
            <mxPoint x="1220" y="760" as="targetPoint" />
          </mxGeometry>
        </mxCell>
        <mxCell id="H4qmeB2u3oznIAtk8Gsr-28" value="" style="endArrow=classic;html=1;rounded=0;exitX=0;exitY=0.5;exitDx=0;exitDy=0;entryX=1;entryY=0.75;entryDx=0;entryDy=0;" edge="1" parent="1" source="H4qmeB2u3oznIAtk8Gsr-23" target="H4qmeB2u3oznIAtk8Gsr-3">
          <mxGeometry width="50" height="50" relative="1" as="geometry">
            <mxPoint x="1270" y="655" as="sourcePoint" />
            <mxPoint x="1225" y="750" as="targetPoint" />
          </mxGeometry>
        </mxCell>
        <mxCell id="H4qmeB2u3oznIAtk8Gsr-29" value="" style="endArrow=classic;html=1;rounded=0;exitX=0;exitY=0.5;exitDx=0;exitDy=0;entryX=1;entryY=1;entryDx=0;entryDy=0;" edge="1" parent="1" source="H4qmeB2u3oznIAtk8Gsr-24" target="H4qmeB2u3oznIAtk8Gsr-3">
          <mxGeometry width="50" height="50" relative="1" as="geometry">
            <mxPoint x="1287" y="785" as="sourcePoint" />
            <mxPoint x="1215" y="770" as="targetPoint" />
          </mxGeometry>
        </mxCell>
        <mxCell id="H4qmeB2u3oznIAtk8Gsr-30" value="Delegado" style="rhombus;whiteSpace=wrap;html=1;" vertex="1" parent="1">
          <mxGeometry x="920" y="725" width="70" height="70" as="geometry" />
        </mxCell>
        <mxCell id="H4qmeB2u3oznIAtk8Gsr-31" value="1" style="text;html=1;align=center;verticalAlign=middle;whiteSpace=wrap;rounded=0;" vertex="1" parent="1">
          <mxGeometry x="990" y="730" width="30" height="30" as="geometry" />
        </mxCell>
        <mxCell id="H4qmeB2u3oznIAtk8Gsr-32" value="1" style="text;html=1;align=center;verticalAlign=middle;whiteSpace=wrap;rounded=0;" vertex="1" parent="1">
          <mxGeometry x="1120" y="790" width="30" height="30" as="geometry" />
        </mxCell>
        <mxCell id="H4qmeB2u3oznIAtk8Gsr-33" value="" style="endArrow=none;html=1;rounded=0;exitX=1;exitY=0.5;exitDx=0;exitDy=0;entryX=0;entryY=0.5;entryDx=0;entryDy=0;edgeStyle=orthogonalEdgeStyle;" edge="1" parent="1" source="H4qmeB2u3oznIAtk8Gsr-1" target="H4qmeB2u3oznIAtk8Gsr-12">
          <mxGeometry width="50" height="50" relative="1" as="geometry">
            <mxPoint x="830" y="1030" as="sourcePoint" />
            <mxPoint x="880" y="980" as="targetPoint" />
          </mxGeometry>
        </mxCell>
        <mxCell id="H4qmeB2u3oznIAtk8Gsr-34" value="" style="endArrow=none;html=1;rounded=0;exitX=0;exitY=0.5;exitDx=0;exitDy=0;entryX=1;entryY=0.5;entryDx=0;entryDy=0;" edge="1" parent="1" source="H4qmeB2u3oznIAtk8Gsr-2" target="H4qmeB2u3oznIAtk8Gsr-12">
          <mxGeometry width="50" height="50" relative="1" as="geometry">
            <mxPoint x="820" y="750" as="sourcePoint" />
            <mxPoint x="845" y="575" as="targetPoint" />
          </mxGeometry>
        </mxCell>
        <mxCell id="H4qmeB2u3oznIAtk8Gsr-35" value="" style="endArrow=none;html=1;rounded=0;exitX=0;exitY=0.5;exitDx=0;exitDy=0;entryX=1;entryY=0.5;entryDx=0;entryDy=0;" edge="1" parent="1" source="H4qmeB2u3oznIAtk8Gsr-19" target="H4qmeB2u3oznIAtk8Gsr-2">
          <mxGeometry width="50" height="50" relative="1" as="geometry">
            <mxPoint x="920" y="575" as="sourcePoint" />
            <mxPoint x="795" y="575" as="targetPoint" />
          </mxGeometry>
        </mxCell>
        <mxCell id="H4qmeB2u3oznIAtk8Gsr-36" value="" style="endArrow=none;html=1;rounded=0;exitX=0.5;exitY=1;exitDx=0;exitDy=0;entryX=0.5;entryY=0;entryDx=0;entryDy=0;" edge="1" parent="1" source="H4qmeB2u3oznIAtk8Gsr-19" target="H4qmeB2u3oznIAtk8Gsr-3">
          <mxGeometry width="50" height="50" relative="1" as="geometry">
            <mxPoint x="1120" y="575" as="sourcePoint" />
            <mxPoint x="1040" y="575" as="targetPoint" />
          </mxGeometry>
        </mxCell>
        <mxCell id="H4qmeB2u3oznIAtk8Gsr-37" value="" style="endArrow=none;html=1;rounded=0;exitX=0;exitY=0.5;exitDx=0;exitDy=0;entryX=1;entryY=0.5;entryDx=0;entryDy=0;" edge="1" parent="1" source="H4qmeB2u3oznIAtk8Gsr-3" target="H4qmeB2u3oznIAtk8Gsr-30">
          <mxGeometry width="50" height="50" relative="1" as="geometry">
            <mxPoint x="1155" y="610" as="sourcePoint" />
            <mxPoint x="1155" y="740" as="targetPoint" />
          </mxGeometry>
        </mxCell>
        <mxCell id="H4qmeB2u3oznIAtk8Gsr-38" value="" style="endArrow=none;html=1;rounded=0;entryX=0.5;entryY=1;entryDx=0;entryDy=0;exitX=0.5;exitY=1;exitDx=0;exitDy=0;edgeStyle=orthogonalEdgeStyle;" edge="1" parent="1" source="H4qmeB2u3oznIAtk8Gsr-3" target="H4qmeB2u3oznIAtk8Gsr-30">
          <mxGeometry width="50" height="50" relative="1" as="geometry">
            <mxPoint x="940" y="940" as="sourcePoint" />
            <mxPoint x="990" y="890" as="targetPoint" />
            <Array as="points">
              <mxPoint x="1145" y="840" />
              <mxPoint x="955" y="840" />
            </Array>
          </mxGeometry>
        </mxCell>
      </root>
    </mxGraphModel>
  </diagram>
</mxfile>
